<?xml version="1.0" encoding="utf-8"?>
<!-- Generator: Adobe Illustrator 27.5.0, SVG Export Plug-In . SVG Version: 6.00 Build 0)  -->
<svg version="1.1" id="Layer_1" xmlns="http://www.w3.org/2000/svg" xmlns:xlink="http://www.w3.org/1999/xlink" x="0px" y="0px"
	 viewBox="0 0 1808.02 1812.71" style="enable-background:new 0 0 1808.02 1812.71;" xml:space="preserve">
<style type="text/css">
	.st0{fill:#FFFFFF;}
</style>
<g>
	<path class="st0" d="M904.01,387.99c60.59,0,118.71,10.38,172.77,29.5c147.29,52.05,264.03,168.8,316.09,316.09
		c19.12,54.02,29.5,112.18,29.5,172.77h345.59c0-59.17-5.94-116.95-17.28-172.77c-25.9-127.66-79.96-245.12-155.45-345.59
		c-49.17-65.44-107.41-123.69-172.86-172.86c-100.47-75.49-217.92-129.55-345.59-155.45c-55.82-11.34-113.61-17.28-172.77-17.28
		c-59.17,0-116.95,5.94-172.77,17.28c-127.67,25.9-245.12,79.96-345.59,155.45C320.2,264.3,261.96,322.55,212.79,387.99
		C137.31,488.46,83.24,605.92,57.34,733.58C46,789.4,40.06,847.19,40.06,906.35v863.95h345.59V906.35
		c0-60.59,10.38-118.75,29.5-172.77c52.05-147.29,168.8-264.03,316.09-316.09C785.3,398.37,843.42,387.99,904.01,387.99z"/>
	<path class="st0" d="M1595.22,1335.59c-49.17-65.44-107.41-123.69-172.86-172.81c-100.47-75.49-217.92-129.55-345.59-155.45
		c-55.82-11.34-113.61-17.28-172.77-17.28H731.24v345.55h172.77c60.59,0,118.71,10.38,172.77,29.5
		c147.29,52.05,264.03,168.8,316.09,316.09c10.13,28.66,17.83,58.46,22.76,89.13h348.31c-2.89-30.21-7.32-59.92-13.26-89.13
		C1724.73,1553.51,1670.67,1436.05,1595.22,1335.59z"/>
</g>
</svg>
